<svg xmlns="http://www.w3.org/2000/svg" width="45" height="45" fill="none"><path fill="#2D2B5C" d="M29.475 3.376a2.25 2.25 0 0 0 1.012 3.016A18.001 18.001 0 0 1 40.48 21.67a18.008 18.008 0 0 1-8.496 16.158 17.997 17.997 0 0 1-25.01-6.192 18.007 18.007 0 0 1-2.474-9.13A17.85 17.85 0 0 1 14.512 6.391a2.264 2.264 0 0 0-2.024-4.051A22.503 22.503 0 0 0 .596 27.638 22.506 22.506 0 0 0 22.5 45a22.497 22.497 0 0 0 21.904-17.362A22.51 22.51 0 0 0 32.512 2.341a2.25 2.25 0 0 0-3.037 1.035ZM20.25 2.25v21.582l-5.152-5.176a2.261 2.261 0 0 0-3.196 0 2.26 2.26 0 0 0 0 3.196l9 9.002c.214.205.467.365.743.472a2.249 2.249 0 0 0 1.71 0c.276-.107.529-.267.742-.472l9-9.002a2.25 2.25 0 0 0 0-3.196 2.254 2.254 0 0 0-2.462-.493 2.254 2.254 0 0 0-.733.493l-5.152 5.176V2.251a2.25 2.25 0 1 0-4.5 0Z"/></svg>