<svg xmlns="http://www.w3.org/2000/svg" width="10" height="10" fill="none"><path fill="#2D2B5C" d="M9.646 6.646 6.416 5l3.23-1.646a.642.642 0 0 0 .33-.38.561.561 0 0 0-.07-.474.703.703 0 0 0-.43-.291.791.791 0 0 0-.538.062l-3.23 1.646V.625a.59.59 0 0 0-.207-.442A.758.758 0 0 0 5 0a.758.758 0 0 0-.5.183.59.59 0 0 0-.208.442v3.292l-3.23-1.646a.791.791 0 0 0-.537-.062.703.703 0 0 0-.43.291.562.562 0 0 0-.07.474c.048.16.166.297.329.38L3.584 5 .354 6.646a.642.642 0 0 0-.33.38.562.562 0 0 0 .07.474.704.704 0 0 0 .43.291c.182.043.375.02.538-.062l3.23-1.646v3.292a.59.59 0 0 0 .207.442A.758.758 0 0 0 5 10a.758.758 0 0 0 .5-.183.59.59 0 0 0 .208-.442V6.083l3.23 1.646a.79.79 0 0 0 .537.062.703.703 0 0 0 .43-.291.561.561 0 0 0 .07-.474.642.642 0 0 0-.329-.38Z"/></svg>