<svg xmlns="http://www.w3.org/2000/svg" width="21" height="21" fill="none"><path fill="#1A1930" d="M5.793 11.445a.788.788 0 0 0-.473.473.875.875 0 0 0 1.137 1.137c.107-.044.204-.107.29-.184.077-.085.139-.183.183-.289A.735.735 0 0 0 7 12.25a.919.919 0 0 0-.254-.621.875.875 0 0 0-.954-.184Zm11.497-3.5L16.1 4.419a2.625 2.625 0 0 0-2.485-1.75h-6.23A2.625 2.625 0 0 0 4.9 4.419L3.71 7.97A2.625 2.625 0 0 0 1.75 10.5V14a2.625 2.625 0 0 0 1.75 2.468V17.5a.875.875 0 0 0 1.75 0v-.875h10.5v.875a.875.875 0 0 0 1.75 0v-1.032A2.626 2.626 0 0 0 19.25 14v-3.5a2.625 2.625 0 0 0-1.96-2.529v-.026ZM6.554 4.97a.875.875 0 0 1 .831-.595h6.23a.875.875 0 0 1 .875.595l.919 2.905H5.59l.963-2.905ZM17.5 14a.875.875 0 0 1-.875.875H4.375A.875.875 0 0 1 3.5 14v-3.5a.875.875 0 0 1 .875-.875h12.25a.875.875 0 0 1 .875.875V14Zm-2.957-2.555a.789.789 0 0 0-.473.473.876.876 0 0 0 1.137 1.137.787.787 0 0 0 .473-.473.734.734 0 0 0 .07-.332.919.919 0 0 0-.254-.621.874.874 0 0 0-.954-.184Zm-3.168-.07h-1.75a.875.875 0 0 0 0 1.75h1.75a.875.875 0 1 0 0-1.75Z"/></svg>