<svg xmlns="http://www.w3.org/2000/svg" width="21" height="21" fill="none"><path fill="#1A1930" d="m18.655 8.356-1.654-.551.779-1.558a.876.876 0 0 0-.166-.997L15.75 3.386a.875.875 0 0 0-1.006-.166l-1.558.779-.551-1.654a.875.875 0 0 0-.822-.595H9.187a.875.875 0 0 0-.83.595l-.552 1.654-1.558-.779a.875.875 0 0 0-.997.166L3.386 5.25a.875.875 0 0 0-.166 1.006l.779 1.558-1.654.551a.875.875 0 0 0-.595.822v2.626a.875.875 0 0 0 .595.83l1.654.552-.779 1.557a.875.875 0 0 0 .166.998l1.864 1.864a.875.875 0 0 0 1.006.166l1.558-.779.551 1.654a.875.875 0 0 0 .831.595h2.625a.875.875 0 0 0 .832-.595l.55-1.654 1.558.779a.874.874 0 0 0 .989-.166l1.864-1.864a.875.875 0 0 0 .166-1.006l-.779-1.558 1.654-.551a.875.875 0 0 0 .595-.822V9.187a.875.875 0 0 0-.595-.83ZM17.5 11.182l-1.05.35A1.75 1.75 0 0 0 15.435 14l.499.998-.963.962-.971-.525a1.75 1.75 0 0 0-2.441 1.015l-.35 1.05H9.818l-.35-1.05A1.75 1.75 0 0 0 7 15.435l-.997.499-.963-.963.525-.971a1.75 1.75 0 0 0-1.015-2.467l-1.05-.35V9.817l1.05-.35A1.75 1.75 0 0 0 5.565 7l-.499-.971.963-.963.971.499A1.75 1.75 0 0 0 9.467 4.55l.35-1.05h1.365l.35 1.05A1.75 1.75 0 0 0 14 5.565l.998-.499.962.963-.525.971a1.75 1.75 0 0 0 1.015 2.441l1.05.35v1.391ZM10.5 7a3.5 3.5 0 1 0 0 7 3.5 3.5 0 0 0 0-7Zm0 5.25a1.75 1.75 0 1 1 0-3.5 1.75 1.75 0 0 1 0 3.5Z"/></svg>