<svg xmlns="http://www.w3.org/2000/svg" width="21" height="21" fill="none"><path fill="#1A1930" d="M17.385 7.525A.875.875 0 0 0 16.624 7h-4.008l1.111-4.147a.875.875 0 0 0-.454-1.013.875.875 0 0 0-.386-.09H6.763a.875.875 0 0 0-.875.648l-2.345 8.75A.875.875 0 0 0 4 12.162c.122.059.255.089.39.088h3.387l-1.584 5.898a.875.875 0 0 0 1.496.813l9.537-10.5a.874.874 0 0 0 .158-.936ZM8.819 15.12l.936-3.5a.875.875 0 0 0-.455-1.012.875.875 0 0 0-.385-.09h-3.36L7.428 3.5h4.313L10.63 7.648a.876.876 0 0 0 .875 1.102h3.124l-5.81 6.37Z"/></svg>