<svg xmlns="http://www.w3.org/2000/svg" width="21" height="21" fill="none"><path fill="#1A1930" d="M18.375 9.625c-.525 0-.875.35-.875.875 0 2.537-1.313 4.813-3.5 6.038-3.325 1.924-7.612.787-9.537-2.538C2.538 10.675 3.675 6.388 7 4.463c2.887-1.663 6.387-1.05 8.575 1.224h-2.1c-.525 0-.875.35-.875.875 0 .526.35.875.875.875h3.938c.524 0 .875-.35.875-.875V2.626c0-.525-.35-.875-.875-.875-.526 0-.875.35-.875.875V4.2c-1.663-1.575-3.763-2.45-6.038-2.45-4.813 0-8.75 3.938-8.75 8.75 0 4.813 3.938 8.75 8.75 8.75 4.813 0 8.75-3.938 8.75-8.75 0-.525-.35-.875-.875-.875Z"/></svg>