<svg xmlns="http://www.w3.org/2000/svg" width="21" height="21" fill="none"><path fill="#1A1930" d="M19.248 8.461a.874.874 0 0 0-.752-.586l-4.979-.726-2.231-4.524a.874.874 0 0 0-1.575 0L7.48 7.14l-4.98.735a.875.875 0 0 0-.708.595.875.875 0 0 0 .219.875l3.614 3.5-.875 4.97a.875.875 0 0 0 1.286.945l4.462-2.336 4.463 2.336c.123.07.261.105.402.105a.875.875 0 0 0 .82-.553.874.874 0 0 0 .047-.488l-.875-4.97 3.613-3.5a.875.875 0 0 0 .28-.893Zm-5.38 3.5a.874.874 0 0 0-.255.77l.63 3.675-3.29-1.75a.927.927 0 0 0-.822 0l-3.29 1.75.63-3.675a.875.875 0 0 0-.254-.77L4.592 9.336l3.684-.534a.875.875 0 0 0 .665-.48l1.557-3.335 1.645 3.343a.876.876 0 0 0 .665.481l3.684.534-2.625 2.616Z"/></svg>