<svg xmlns="http://www.w3.org/2000/svg" width="20" height="20" fill="none"><path fill="#EA5959" d="M19.966 7.565a1.048 1.048 0 0 0-.33-.483.976.976 0 0 0-.529-.217l-5.682-.868L10.878.59a1.024 1.024 0 0 0-.367-.43A.97.97 0 0 0 9.98 0a.97.97 0 0 0-.53.16 1.033 1.033 0 0 0-.37.43L6.535 5.986l-5.682.879a.977.977 0 0 0-.501.234c-.143.126-.25.291-.308.477a1.094 1.094 0 0 0 .25 1.046l4.124 4.183-.998 5.94c-.035.196-.017.399.053.584.071.185.191.346.346.462a.96.96 0 0 0 1.049.073l5.113-2.792 5.093 2.803c.14.082.298.125.46.125a.967.967 0 0 0 .588-.199c.156-.116.276-.276.347-.461.07-.186.089-.388.053-.584l-.999-5.94 4.124-4.184a1.04 1.04 0 0 0 .308-.485c.057-.189.061-.39.012-.582Zm-6.142 4.184a1.051 1.051 0 0 0-.254.427 1.1 1.1 0 0 0-.035.503l.719 4.382-3.755-2.091a.962.962 0 0 0-.939 0L5.805 17.06l.72-4.382c.027-.168.016-.34-.035-.503a1.052 1.052 0 0 0-.255-.427L3.239 8.61l4.204-.638a.977.977 0 0 0 .448-.188c.132-.1.24-.233.311-.387L9.98 3.414l1.877 3.995c.072.153.179.286.312.386a.97.97 0 0 0 .447.189l4.204.638-2.996 3.127Z"/></svg>