<svg xmlns="http://www.w3.org/2000/svg" width="21" height="21" fill="none"><path fill="#1A1930" d="M16.617 18.377h-.875v-1.459a4.375 4.375 0 0 0-.262-1.468.864.864 0 0 0-.031-.074 4.358 4.358 0 0 0-.582-1.082l-1.225-1.634a2.642 2.642 0 0 1-.525-1.575V10.2a2.644 2.644 0 0 1 .769-1.856l.575-.575a4.327 4.327 0 0 0 1.222-2.484c0-.012.007-.022.007-.034l-.003-.012c.03-.187.049-.375.055-.563v-2.05h.875a.875.875 0 1 0 0-1.75H4.367a.875.875 0 1 0 0 1.75h.875v2.05c.006.188.025.376.055.563l-.002.012c0 .012.006.022.007.034.124.94.553 1.812 1.222 2.484l.575.575c.49.493.766 1.16.768 1.856v.883a2.644 2.644 0 0 1-.524 1.576l-1.226 1.634c-.244.332-.44.696-.582 1.082a.854.854 0 0 0-.03.074c-.171.47-.26.967-.263 1.468v1.459h-.875a.875.875 0 0 0 0 1.75h12.25a.875.875 0 1 0 0-1.75Zm-9.625-14v-1.75h7v1.75h-7Zm.769 2.156a2.6 2.6 0 0 1-.33-.406h6.122a2.598 2.598 0 0 1-.33.406l-.575.575a4.34 4.34 0 0 0-1.244 2.519H9.58a4.34 4.34 0 0 0-1.244-2.52l-.575-.574Zm.982 7.176a4.407 4.407 0 0 0 .864-2.332h1.77c.058.844.359 1.654.865 2.332l.875 1.168h-5.25l.876-1.168Zm5.25 4.668h-7v-1.459c.002-.097.01-.195.023-.291h6.952c.014.096.022.194.024.291v1.459Z"/></svg>