<svg xmlns="http://www.w3.org/2000/svg" width="21" height="21" fill="none"><path fill="#1A1930" d="M11.637 10.693a4.304 4.304 0 0 0 1.488-3.255 4.375 4.375 0 1 0-8.75 0 4.305 4.305 0 0 0 1.487 3.255 7 7 0 0 0-4.112 6.37.875.875 0 1 0 1.75 0 5.25 5.25 0 0 1 10.5 0 .875.875 0 1 0 1.75 0 7 7 0 0 0-4.113-6.37Zm-2.887-.63a2.625 2.625 0 1 1 0-5.25 2.625 2.625 0 0 1 0 5.25Zm10.246-2.074a.875.875 0 0 0-1.242 0l-1.75 1.75-.543-.552a.876.876 0 1 0-1.242 1.234l1.172 1.173a.875.875 0 0 0 1.234 0l2.336-2.336a.875.875 0 0 0 .035-1.27Z"/></svg>