<svg xmlns="http://www.w3.org/2000/svg" width="140" height="35" fill="none"><g clip-path="url(#a)"><path fill="#1A1930" d="M45.206 13.626c0-2.485-2.442-5.125-6.668-5.125-4.746 0-9.96 3.446-10.756 10.319-.814 6.941 3.55 10.026 7.95 10.026s6.703-1.696 9.058-3.959c-2.026-2.52-4.642-1.354-5.144-1.097-.554.274-1.264.651-2.72.651-1.697 0-3.429-.754-3.429-3.89 10.878-1.063 11.709-4.44 11.709-6.925Zm-5.387.412c-.069.77-.38 2.09-5.889 2.828 1.16-4.08 3.378-4.388 4.4-4.388.953 0 1.559.737 1.49 1.56Zm-18.428.668s-2.339 7.267-2.53 7.867c-.069-.617-1.783-13.66-1.783-13.66-3.984 0-6.114 2.81-7.24 5.776 0 0-2.84 7.284-3.083 7.901-.017-.565-.433-7.815-.433-7.815C6.079 11.14 2.719 8.93 0 8.93l3.29 19.762c4.175-.017 6.427-2.81 7.605-5.776 0 0 2.51-6.427 2.615-6.719.017.274 1.801 12.495 1.801 12.495 4.192 0 6.443-2.622 7.656-5.485L28.838 8.93c-4.14 0-6.322 2.794-7.447 5.776Zm39.195-6.239c-2.58 0-4.555 1.388-6.218 3.428v-.017L55.858 0c-3.43 0-6.218 2.948-6.755 7.336l-2.598 21.202c1.974 0 4.07-.566 5.196-2.005 1.005 1.285 2.512 2.313 4.746 2.313 5.785 0 9.751-6.65 9.751-12.889-.034-5.69-2.823-7.49-5.612-7.49Zm-.536 10.198c-.607 3.48-2.564 5.845-4.452 5.845-1.905 0-2.72-.84-2.72-.84.365-3.05.59-4.919 1.283-6.53.692-1.611 2.338-4.182 4.053-4.182 1.68 0 2.442 2.21 1.836 5.707ZM80.644 8.93h-4.036l.017-.206c.277-2.605.9-3.976 2.962-4.2 1.403-.136 2.026-.856 2.182-1.644.121-.618.502-2.76.502-2.76-8.106-.051-10.652 3.41-11.31 8.69l-.017.12h-.087c-1.316 0-2.77 1.474-3.013 3.342l-.087.686h2.702L68.19 31.503l-.693 3.325c.087 0 .19.017.277.017 3.793-.137 6.218-3.102 6.755-7.404l1.767-14.483h1.264c1.248 0 2.702-1.234 2.962-3.291l.122-.737Zm20.992-.343c-4.66 0-9.06 3.394-10.41 8.724-1.351 5.33.693 11.638 7.551 11.638 6.842 0 10.791-6.564 10.791-12.032 0-5.433-3.724-8.33-7.932-8.33Zm1.887 9.907c-.242 2.417-1.316 6.085-4.26 6.085-2.962 0-2.547-4.285-2.252-6.325.312-2.177 1.542-5.28 4.191-5.28 2.374 0 2.598 2.795 2.321 5.52Zm29.064-3.788s-2.338 7.267-2.529 7.867c-.069-.617-1.784-13.66-1.784-13.66-3.983 0-6.114 2.81-7.24 5.776 0 0-2.84 7.284-3.083 7.901-.017-.565-.433-7.815-.433-7.815-.242-3.634-3.602-5.845-6.322-5.845l3.274 19.762c4.174-.017 6.426-2.81 7.603-5.776 0 0 2.512-6.427 2.598-6.719.035.274 1.802 12.495 1.802 12.495 4.191 0 6.443-2.622 7.655-5.485L140 8.93c-4.122 0-6.304 2.794-7.413 5.776ZM84.454.12l-3.395 27.098-.693 3.342c.087 0 .19.018.278.018 3.654-.052 6.252-3.223 6.737-7.216l1.957-15.546c.59-4.748-2.27-7.696-4.884-7.696Z"/></g><defs><clipPath id="a"><path fill="#fff" d="M0 0h140v35H0z"/></clipPath></defs></svg>